<?xml version="1.0" standalone="no"?><!DOCTYPE svg PUBLIC "-//W3C//DTD SVG 1.1//EN" "http://www.w3.org/Graphics/SVG/1.1/DTD/svg11.dtd"><svg t="1679367143803" class="icon" viewBox="0 0 1024 1024" version="1.1" xmlns="http://www.w3.org/2000/svg" p-id="11231" xmlns:xlink="http://www.w3.org/1999/xlink" width="128" height="128"><path d="M509.2 338.8c-46.6 0-90 18.2-122.3 51.4-32.1 32.9-49.8 76.8-49.8 123.7 0 46.9 18.2 91.1 51.5 124.4 32.6 32.6 75.4 50.6 120.5 50.6 46.6 0 90-18.2 122.3-51.4 32.1-32.9 49.8-76.8 49.8-123.7 0-46.5-18.1-90.5-50.9-123.7-32.6-33-75.6-51.3-121.1-51.3z m116.5 175.1c0 64.2-52.2 116.5-116.5 116.5-64.2 0-116.5-52.2-116.5-116.5 0-64.2 52.2-116.5 116.5-116.5 64.2 0 116.5 52.3 116.5 116.5z" p-id="11232"></path><path d="M932 429.1c-0.3-10.4-7.1-18.6-18.8-22.6l-0.7-0.2c-41.9-8.4-76-33.8-98.8-73.5l-0.1-0.2c-22.9-37.3-28.1-82.4-14.2-123.9 3.6-8 0.6-19.3-7.3-27l-0.1-0.1c-39.2-36.4-86.3-64.4-139.8-83.4-7.9-3.7-18.9-0.9-27 7.1l-0.4 0.4c-26.8 32.2-67.9 50.7-112.9 50.7-40 0-80.2-18.1-113.3-51.1-5.7-5.6-13.9-11.5-26.6-7.2l-0.4 0.1c-54.8 22.6-100.3 49.6-139.2 82.8-8.3 4.7-11.8 16.2-8.1 27.2 12 45.1 7.3 87-14.1 124.6l-0.1 0.1c-19.1 35.4-54.3 61.5-99.1 73.5l-0.6 0.2-0.6 0.3c-8.1 4.1-14.5 11.8-17.6 21l-0.2 0.7c-6.1 30.6-8.9 57.1-8.9 83.4 0 28 3.1 57.4 8.8 82.9 0.3 10.4 7.1 18.6 18.7 22.5l0.7 0.2c42 8.4 76.2 33.8 98.8 73.5l0.1 0.2c22.9 37.4 28 82.5 14.2 123.9-3.7 7.9-0.8 18.9 7.1 27l0.2 0.2c39.2 36.4 86.3 64.5 140.1 83.5l1 0.3h7c7.8 0 15.1-3.8 18.8-7.6l0.4-0.4c26.8-32.2 67.9-50.7 112.9-50.7 40.1 0 80.3 18.1 113.3 51.1 4.3 4.3 10.1 8.7 18.2 8.7 2.6 0 5.4-0.4 8.4-1.5l0.4-0.1c54.8-22.6 100.3-49.6 139.1-82.8 8.3-4.7 11.8-16.1 8.3-27.2-12.1-45.3-7.3-87.2 14.1-124.6l0.1-0.1c19.1-35.4 54.3-61.5 99.1-73.5l0.6-0.2 0.5-0.3c8.2-4.1 14.5-11.6 17.7-21l0.1-0.4 0.1-0.4c6.1-30.6 8.9-57.1 8.9-83.4 0-27.3-3.1-56.7-8.8-82.7zM746.1 812.5c-26.6 23.3-58.5 42.4-95 56.9-40.2-35.9-88.2-54.9-139.3-54.9-49.5 0-100.1 19.9-139.2 54.8-34-14.6-66-33.7-95-57 10.3-48 2.7-101.2-21.8-150.2l-0.2-0.4c-28.1-46.7-69.7-80.5-117.3-95.5-2.6-18.8-5.3-38.3-5.3-57.2 0-19.4 2.7-39.2 5.2-57.1 47.7-15 89.3-48.8 117.3-95.5l0.2-0.4c24.5-49 32.2-102.2 21.8-150.4 26.5-23.3 58.4-42.5 95-57 39.2 34.9 89.7 54.9 139.3 54.9 51.2 0 99.2-18.9 139.1-54.8 34.2 14.7 66.1 33.9 95 57.1-11.5 53.2-3.5 107.9 22.1 150.6 28 46.6 69.5 80.4 117.2 95.5 2.7 18.8 5.3 38.2 5.3 57.1 0 19-2.6 38.4-5.3 57.2-47.8 15.2-89.3 49-117.2 95.5l-0.2 0.4c-24.4 49-32.1 102.2-21.7 150.4z" p-id="11233"></path></svg>